<svg width="1280" height="720" viewBox="0 0 1280 720" fill="none" xmlns="http://www.w3.org/2000/svg">
<g clip-path="url(#clip0)">
<rect x="-35" y="-33.0926" width="10.8934" height="437" transform="rotate(-35.6468 -35 -33.0926)" fill="#FF165D"/>
<rect x="16.9674" y="-28.6031" width="10.4379" height="478.237" transform="rotate(-35.6468 16.9674 -28.6031)" fill="#FF165D" fill-opacity="0.5"/>
<rect x="61" y="-19.8388" width="10.5719" height="504.52" transform="rotate(-35.6468 61 -19.8388)" fill="#FF165D" fill-opacity="0.25"/>
<g filter="url(#filter0_d)">
<circle cx="1141" cy="113" r="100" fill="#FF8616"/>
</g>
<g clip-path="url(#clip1)">
<path d="M266.493 527.6C255.448 532.3 251.598 544.8 257.373 557.6C259.299 561.9 261.325 563.8 273.282 572C280.578 577 291.521 588.4 296.993 596.9C298.513 599.3 300.337 603.6 300.945 606.4C305.808 629.8 323.743 617.1 323.439 590.4C323.135 564.2 305.504 533.9 286.86 527.5C281.186 525.6 271.154 525.6 266.493 527.6Z" fill="#FF165D" fill-opacity="0.25"/>
<path d="M937.792 529.4C926.646 532.3 918.742 537.1 907.495 547.9C889.357 565.3 879.528 587 882.365 603.8C883.683 611.3 885.608 614.7 889.256 615.6C893.714 616.7 898.375 613.7 901.922 607.5C905.772 600.7 911.446 595.7 923.403 588.6C932.928 583 938.298 580.7 951.066 577.1C959.983 574.5 964.238 571.7 968.393 565.7C975.486 555.2 975.081 544.2 967.177 536.4C960.388 529.7 947.925 526.7 937.792 529.4Z" fill="#FF165D" fill-opacity="0.25"/>
<path d="M421.829 544.4C402.07 548.9 388.289 562.1 385.047 579.9C383.122 590.3 385.959 599.7 393.254 607.5C401.563 616.4 409.163 619 430.645 620C444.628 620.6 448.681 621.2 455.267 623.4C474.722 629.9 485.564 642.4 485.767 658.6C485.868 674.2 474.824 687 455.571 693.4C440.879 698.3 409.771 703.8 390.113 705C366.808 706.3 355.256 704.7 324.554 695.7C302.464 689.2 297.803 688.7 262.44 688.4C234.169 688.2 229.306 688 219.882 686C199.819 681.9 186.748 675.9 172.46 664.1C127.977 627.4 95.0458 613.4 67.7885 619.4C49.3468 623.5 39.518 634 39.518 649.5C39.6193 659 44.8883 666.1 54.4132 669.4C56.7437 670.2 63.5327 671.6 69.6124 672.5C81.4678 674.4 87.2435 676.6 89.7767 680.5C93.4245 685.9 89.2701 693.8 80.5558 698.2C77.4147 699.8 73.3616 700.5 62.8234 701.2C37.4914 702.8 11.7541 709.9 2.02655 717.9L-0.506653 719.9L647.385 720C1003.76 720 1295.07 719.8 1294.87 719.6C1294.67 719.4 1288.08 717.6 1280.28 715.5C1261.03 710.6 1251.2 707.1 1229.11 697.7C1188.27 680.4 1178.85 677.2 1160.61 674.9C1144.81 673 1129.71 674.9 1111.57 681.2C1106.6 682.9 1100.73 684.2 1097.79 684.2C1088.77 684.3 1081.37 679.1 1079.14 671.1C1076.21 660.4 1084.72 651.6 1100.52 649C1104.07 648.4 1112.58 647.1 1119.47 646C1139.23 642.8 1149.67 637.9 1155.14 629.3C1158.79 623.7 1159.9 620.1 1161.22 610C1163.85 590.7 1155.55 576.6 1135.79 566.5C1110.25 553.5 1079.25 553.5 1045.3 566.7C1016.63 577.8 987.24 596.2 949.647 626.8C939.21 635.2 927.152 644.8 922.897 648.1C893.309 670.6 859.161 686.4 824.304 693.7C812.854 696 808.801 696.4 793.399 696.5C772.222 696.5 771.816 696.4 748.308 684.6C727.435 674 719.328 671.9 696.631 671.3C684.066 670.9 675.555 671.3 659.139 673C615.872 677.6 592.263 673.9 569.363 659.1C552.34 648 543.625 638.1 518.699 601.4C493.873 564.9 482.221 553.6 462.158 546.7C454.659 544.1 451.721 543.6 440.777 543.4C432.367 543.1 425.983 543.5 421.829 544.4Z" fill="#FF165D" fill-opacity="0.25"/>
<path d="M819.238 547.2C811.436 550 803.532 558 797.858 569C795.628 573.3 795.02 575.9 795.02 581C795.02 589.1 796.54 592.2 800.29 591.8C802.316 591.6 803.633 590.4 805.356 587.3C808.497 581.7 816.907 575.3 826.027 571.4C834.64 567.8 837.984 564 837.984 557.8C837.984 552.4 836.565 550.2 831.6 547.9C826.837 545.8 823.696 545.6 819.238 547.2Z" fill="#FF165D" fill-opacity="0.25"/>
<path d="M573.011 550.1C562.371 556.1 558.014 562 555.582 573.6C554.265 580 554.164 582.7 555.177 589.4C558.723 614.6 572.504 637.4 588.818 645C598.951 649.7 604.929 648.8 606.55 642.3C607.057 640.4 606.246 637.8 603.51 632.6C601.484 628.6 599.356 622.8 598.849 619.5C597.127 609.3 597.633 593.9 599.964 583.7C601.18 578.4 601.889 572.5 601.585 569.8C601.078 564 596.924 556.9 591.452 552.6C588.311 550.1 586.589 549.5 581.319 549.3C577.874 549.1 574.125 549.5 573.011 550.1Z" fill="#FF165D" fill-opacity="0.25"/>
<path d="M33.9449 554.9C23.4068 560.3 22.3935 572.3 32.121 578.5C34.4516 580 37.2888 580.4 49.1441 580.5C63.5327 580.7 70.0177 582 73.9695 585.5C74.7802 586.2 76.7054 587.3 78.3267 587.9C80.6572 588.8 81.4678 588.6 83.1904 586.9C85.7236 584.4 85.217 580.9 81.1638 573.6C77.9213 567.6 70.9297 561.9 60.8982 557.2C51.1707 552.6 40.3286 551.7 33.9449 554.9Z" fill="#FF165D" fill-opacity="0.25"/>
<path d="M1241.47 558.5C1227.49 563.8 1217.15 574.6 1218.17 582.9C1218.77 587.5 1221.21 587.7 1228.7 583.9C1235.49 580.5 1235.7 580.5 1249.27 580.5C1263.97 580.4 1265.89 579.9 1269.54 575.4C1274 569.8 1271.06 561.3 1263.46 557.5C1259.1 555.2 1248.97 555.7 1241.47 558.5Z" fill="#FF165D" fill-opacity="0.25"/>
<path d="M159.288 558.8C153.107 561 150.472 563.2 147.838 568.2C145.507 572.8 145.406 578.1 147.534 584.5C149.966 591.4 155.032 595.9 165.165 600C179.959 606 195.665 619.2 201.136 630.3C204.885 638 208.331 640.3 212.485 638C216.032 636 217.754 632.5 219.173 624.4C221.909 608.5 212.789 587 196.273 570.7C184.417 559 171.143 554.7 159.288 558.8Z" fill="#FF165D" fill-opacity="0.25"/>
<path d="M702.001 576C676.467 580.6 650.628 597.1 642.218 614.2C636.543 625.6 636.442 633.1 641.812 636.5C645.156 638.7 649.108 637.8 654.681 633.8C666.638 625.3 685.991 622.1 709.5 624.8L723.483 626.4L730.272 622.9C745.268 615.4 749.828 601.1 741.013 589.3C734.426 580.5 726.016 576.2 714.059 575.5C710.006 575.3 704.636 575.5 702.001 576Z" fill="#FF165D" fill-opacity="0.25"/>
<path d="M1211.48 622.2C1202.16 624.7 1186.25 644.6 1187.97 651.5C1189.19 656.4 1199.02 657.4 1211.68 654C1227.59 649.6 1233.16 644.9 1233.16 635.8C1233.16 626.1 1222.32 619.3 1211.48 622.2Z" fill="#FF165D" fill-opacity="0.25"/>
<path d="M803.532 628.6C790.157 633.3 771.816 655.3 770.398 668.4C769.79 673.7 771.918 676.3 778.2 678C790.765 681.3 824.507 670.7 831.499 661.3C836.97 653.8 837.376 644.1 832.512 637.2C826.838 629 813.462 625.1 803.532 628.6Z" fill="#FF165D" fill-opacity="0.25"/>
<path d="M255.651 631.5C250.99 633.5 248.862 637.2 249.571 642.1C250.382 648.2 252.712 650.8 260.717 654.4C269.127 658.2 277.538 664.6 279.666 668.7C283.415 676.1 286.961 677.1 289.494 671.3C295.473 657.1 277.335 630 261.933 630.1C260.312 630.1 257.475 630.7 255.651 631.5Z" fill="#FF165D" fill-opacity="0.25"/>
<path d="M375.927 635.9C367.314 638.9 360.728 647.4 360.728 655.5C360.728 663.6 367.314 672.2 376.941 676.4C392.748 683.4 417.877 686.1 424.261 681.4C426.794 679.5 427.098 678.6 427.098 673.8C427.098 666.6 422.741 659.4 411.696 648.3C398.929 635.4 387.985 631.7 375.927 635.9Z" fill="#FF165D" fill-opacity="0.25"/>
<path d="M1262.95 661.8C1256.57 662.3 1246.44 667.8 1243.9 672.2C1241.98 675.6 1241.88 676.1 1243.4 677.5C1244.61 678.8 1245.53 678.8 1248.26 677.9C1252.62 676.4 1262.55 677.4 1269.54 680C1274.71 682 1275.01 682 1278.66 680.3C1280.69 679.3 1282.92 677.2 1283.62 675.7C1284.84 673.3 1284.74 672.4 1283.12 669.2C1280.18 663.3 1273.9 661 1262.95 661.8Z" fill="#FF165D" fill-opacity="0.25"/>
<path d="M15.6045 670.4C11.8554 673.5 11.7541 678.8 15.0979 682.4C20.4683 688.1 38.2007 690.9 39.9233 686.4C41.3419 682.9 34.1476 672.4 28.2705 669.4C23.9134 667.2 18.7457 667.6 15.6045 670.4Z" fill="#FF165D" fill-opacity="0.25"/>
</g>
</g>
<defs>
<filter id="filter0_d" x="1037" y="13" width="208" height="208" filterUnits="userSpaceOnUse" color-interpolation-filters="sRGB">
<feFlood flood-opacity="0" result="BackgroundImageFix"/>
<feColorMatrix in="SourceAlpha" type="matrix" values="0 0 0 0 0 0 0 0 0 0 0 0 0 0 0 0 0 0 127 0"/>
<feOffset dy="4"/>
<feGaussianBlur stdDeviation="2"/>
<feColorMatrix type="matrix" values="0 0 0 0 0 0 0 0 0 0 0 0 0 0 0 0 0 0 0.25 0"/>
<feBlend mode="normal" in2="BackgroundImageFix" result="effect1_dropShadow"/>
<feBlend mode="normal" in="SourceGraphic" in2="effect1_dropShadow" result="shape"/>
</filter>
<clipPath id="clip0">
<rect width="1280" height="720" fill="white"/>
</clipPath>
<clipPath id="clip1">
<rect width="1297" height="640" fill="white" transform="translate(0 303)"/>
</clipPath>
</defs>
</svg>
