<svg width="1280" height="720" viewBox="0 0 1280 720" fill="none" xmlns="http://www.w3.org/2000/svg">
<g clip-path="url(#clip0)">
<g filter="url(#filter0_d)">
<rect x="-35" y="-33.0926" width="10.8934" height="437" transform="rotate(-35.6468 -35 -33.0926)" fill="#0099FF"/>
</g>
<g filter="url(#filter1_d)">
<rect x="16.9674" y="-28.6031" width="10.4379" height="478.237" transform="rotate(-35.6468 16.9674 -28.6031)" fill="#0099FF" fill-opacity="0.5"/>
</g>
<g filter="url(#filter2_d)">
<rect x="61" y="-19.8388" width="10.5719" height="504.52" transform="rotate(-35.6468 61 -19.8388)" fill="#0099FF" fill-opacity="0.25"/>
</g>
<path d="M0 612.8L42.6667 617.322C85.3333 622.184 170.667 630.716 256 644.622C341.333 658.016 426.667 676.784 512 662.878C597.333 649.484 682.667 603.416 768 603.672C853.333 603.416 938.667 649.484 1024 649.228C1109.33 649.484 1194.67 603.416 1237.33 580.978L1280 558.2V722H1237.33C1194.67 722 1109.33 722 1024 722C938.667 722 853.333 722 768 722C682.667 722 597.333 722 512 722C426.667 722 341.333 722 256 722C170.667 722 85.3333 722 42.6667 722H0V612.8Z" fill="#0099FF"/>
</g>
<defs>
<filter id="filter0_d" x="-39" y="-39.4412" width="271.53" height="369.465" filterUnits="userSpaceOnUse" color-interpolation-filters="sRGB">
<feFlood flood-opacity="0" result="BackgroundImageFix"/>
<feColorMatrix in="SourceAlpha" type="matrix" values="0 0 0 0 0 0 0 0 0 0 0 0 0 0 0 0 0 0 127 0"/>
<feOffset dy="4"/>
<feGaussianBlur stdDeviation="2"/>
<feColorMatrix type="matrix" values="0 0 0 0 0 0 0 0 0 0 0 0 0 0 0 0 0 0 0.25 0"/>
<feBlend mode="normal" in2="BackgroundImageFix" result="effect1_dropShadow"/>
<feBlend mode="normal" in="SourceGraphic" in2="effect1_dropShadow" result="shape"/>
</filter>
<filter id="filter1_d" x="12.9674" y="-34.6862" width="295.193" height="402.71" filterUnits="userSpaceOnUse" color-interpolation-filters="sRGB">
<feFlood flood-opacity="0" result="BackgroundImageFix"/>
<feColorMatrix in="SourceAlpha" type="matrix" values="0 0 0 0 0 0 0 0 0 0 0 0 0 0 0 0 0 0 127 0"/>
<feOffset dy="4"/>
<feGaussianBlur stdDeviation="2"/>
<feColorMatrix type="matrix" values="0 0 0 0 0 0 0 0 0 0 0 0 0 0 0 0 0 0 0.25 0"/>
<feBlend mode="normal" in2="BackgroundImageFix" result="effect1_dropShadow"/>
<feBlend mode="normal" in="SourceGraphic" in2="effect1_dropShadow" result="shape"/>
</filter>
<filter id="filter2_d" x="57" y="-26" width="310.619" height="424.147" filterUnits="userSpaceOnUse" color-interpolation-filters="sRGB">
<feFlood flood-opacity="0" result="BackgroundImageFix"/>
<feColorMatrix in="SourceAlpha" type="matrix" values="0 0 0 0 0 0 0 0 0 0 0 0 0 0 0 0 0 0 127 0"/>
<feOffset dy="4"/>
<feGaussianBlur stdDeviation="2"/>
<feColorMatrix type="matrix" values="0 0 0 0 0 0 0 0 0 0 0 0 0 0 0 0 0 0 0.25 0"/>
<feBlend mode="normal" in2="BackgroundImageFix" result="effect1_dropShadow"/>
<feBlend mode="normal" in="SourceGraphic" in2="effect1_dropShadow" result="shape"/>
</filter>
<clipPath id="clip0">
<rect width="1280" height="720" fill="white"/>
</clipPath>
</defs>
</svg>
